<?xml version="1.0" encoding="iso-8859-1"?>
<!-- Uploaded to: SVG Repo, www.svgrepo.com, Generator: SVG Repo Mixer Tools -->
<!DOCTYPE svg PUBLIC "-//W3C//DTD SVG 1.1//EN" "http://www.w3.org/Graphics/SVG/1.1/DTD/svg11.dtd">
<svg fill="#000000" version="1.1" id="Capa_1" xmlns="http://www.w3.org/2000/svg" xmlns:xlink="http://www.w3.org/1999/xlink" 
	 width="800px" height="800px" viewBox="0 0 793.568 793.568"
	 xml:space="preserve">
<g>
	<g>
		<g>
			<path d="M187.92,173.399c0.125,0,0.249-0.004,0.374-0.005c0.125,0,0.249,0.005,0.374,0.005c47.646,0,86.272-38.626,86.272-86.273
				c0-7.558-0.975-14.888-2.8-21.874C262.578,28.018,228.788,0.5,188.57,0.5c-0.125,0-0.249,0.005-0.374,0.005
				c-0.125-0.001-0.249-0.005-0.374-0.005c-47.647,0-86.272,38.625-86.272,86.273c0,7.564,0.977,14.9,2.805,21.891
				C113.922,145.888,147.708,173.399,187.92,173.399z"/>
			<path d="M188.668,173.899l-0.374-0.005l-0.374,0.005c-39.634,0-74.196-26.774-84.049-65.11
				c-1.872-7.158-2.821-14.565-2.821-22.016C101.05,38.926,139.976,0,187.823,0l0.378,0.005L188.57,0
				c39.642,0,74.206,26.781,84.055,65.127c1.868,7.152,2.815,14.554,2.815,21.999C275.44,134.973,236.515,173.899,188.668,173.899z
				 M188.291,172.894l0.378,0.005c47.295,0,85.772-38.478,85.772-85.773c0-7.359-0.937-14.676-2.784-21.748
				C261.921,27.473,227.755,1,188.57,1l-0.374,0.005L187.823,1c-47.295,0-85.772,38.478-85.772,85.773
				c0,7.365,0.938,14.688,2.789,21.765c9.74,37.896,43.903,64.361,83.081,64.361L188.291,172.894z"/>
		</g>
		<path d="M279.146,209.591h-21.534l-21.556,107.667h-25.549l-6.653-72.276c1.979-11.013,6.716-21.317,11.778-32.096
			c0,0,0.91-1.931,1.368-2.905l0,0c-0.096,0-0.183,0-0.28,0c0.065-0.14,0.128-0.273,0.186-0.39c-30.277,0-27.839,0-57.414,0h-0.001
			c0.055,0.118,0.118,0.25,0.185,0.39c-0.031,0-0.059,0-0.089,0c0,0,0,0-0.001,0c0.458,0.974,1.368,2.905,1.368,2.905
			c4.395,9.357,8.542,18.359,10.854,27.776c0.313,1.301,0.591,2.61,0.829,3.929l-6.689,72.667h-25.513L118.88,209.591H97.346
			c-32.725,0-59.252,26.527-59.252,59.25v172.713c0,32.727,26.527,59.253,59.252,59.253h7.554v250.955
			c0,23.088,18.716,41.807,41.805,41.807c21.514,0,39.226-16.255,41.541-37.153c2.314,20.898,20.025,37.153,41.541,37.153
			c23.089,0,41.804-18.719,41.804-41.807V500.807h7.555c32.726,0,59.252-26.526,59.252-59.253V268.842
			C338.399,236.118,311.872,209.591,279.146,209.591z"/>
	</g>
	<path d="M755.383,641.887c-1.943-45.162-39.162-81.183-84.807-81.183c-39.604,0-72.867,27.112-82.252,63.798
		c-2.074,6.671-3.236,13.489-3.271,20.266c-0.025,5.831,0.775,11.66,2.254,17.388c7.703,38.961,42.055,68.344,83.271,68.344
		c46.891,0,84.896-38.01,84.896-84.896c0-0.605-0.031-1.207-0.047-1.812c0.012-0.563,0.049-1.12,0.047-1.688
		C755.443,642.031,755.412,641.958,755.383,641.887z"/>
	<circle cx="669.676" cy="393.855" r="85.8"/>
	<path d="M584.805,143.543c0.006,0.162,0.021,0.326,0.031,0.488c0.719,38.284,26.77,70.354,62.104,80.157
		c7.061,2.307,14.287,3.406,21.432,3.071c0.438,0.007,0.867,0.033,1.307,0.033c44.816,0,81.494-34.739,84.643-78.754
		c0.021-0.204,0.029-0.406,0.047-0.608c0.043-0.692,0.084-1.387,0.107-2.085c0.043-0.942,0.064-1.885,0.072-2.828
		c0.002-0.205,0.018-0.404,0.018-0.608c0-0.207-0.016-0.407-0.018-0.613c-0.006-0.354,0.01-0.708,0-1.063
		c-0.012-0.307-0.039-0.611-0.053-0.917c-1.34-44.564-37.01-80.481-81.477-82.206c-0.107-0.05-0.225-0.095-0.328-0.146
		c-0.631,0.012-1.262,0.061-1.891,0.088c-0.375-0.003-0.748-0.028-1.125-0.028c-45.703,0-82.947,36.122-84.795,81.369
		c-0.045,0.875-0.062,1.747-0.064,2.619c-0.004,0.3-0.021,0.594-0.021,0.895c0,0.196,0.02,0.393,0.021,0.591
		C584.811,143.181,584.801,143.36,584.805,143.543z"/>
	<path d="M560.746,422.854v-58H500.73v-131c0-32.532,26.467-59,59-59v-58c-64.514,0-117,52.486-117,117v131h-52.018v58h52.018v131
		c0,64.516,52.486,117,117,117v-58c-32.533,0-59-26.468-59-59v-131H560.746z"/>
</g>
</svg>